<svg width="72" height="72" viewBox="0 0 72 72" fill="none" xmlns="http://www.w3.org/2000/svg">
<path d="M24 60V12C24 5.37258 18.6274 0 12 0C5.37258 0 0 5.37258 0 12V60C0 66.6274 5.37258 72 12 72C18.6274 72 24 66.6274 24 60Z" fill="#278094"/>
<path fill-rule="evenodd" clip-rule="evenodd" d="M60 0C66.6274 0 72 5.37258 72 12C72 18.6274 66.6274 24 60 24H36C29.3726 24 24 18.6274 24 12C24 5.37258 29.3726 0 36 0H60Z" fill="#A6D2DD"/>
<path fill-rule="evenodd" clip-rule="evenodd" d="M36 24C42.6274 24 48 29.3726 48 36C48 42.6274 42.6274 48 36 48C29.3726 48 24 42.6274 24 36C24 29.3726 29.3726 24 36 24Z" fill="#D64C4A" fill-opacity="0.85"/>
</svg>
